<svg xmlns="http://www.w3.org/2000/svg" width="24" height="32" viewBox="0 0 24 32">
  <metadata><?xpacket begin="﻿" id="W5M0MpCehiHzreSzNTczkc9d"?>
<x:xmpmeta xmlns:x="adobe:ns:meta/" x:xmptk="Adobe XMP Core 5.6-c138 79.159824, 2016/09/14-01:09:01        ">
   <rdf:RDF xmlns:rdf="http://www.w3.org/1999/02/22-rdf-syntax-ns#">
      <rdf:Description rdf:about=""/>
   </rdf:RDF>
</x:xmpmeta>
                                                                                                    
                                                                                                    
                                                                                                    
                                                                                                    
                                                                                                    
                                                                                                    
                                                                                                    
                                                                                                    
                                                                                                    
                                                                                                    
                                                                                                    
                                                                                                    
                                                                                                    
                                                                                                    
                                                                                                    
                                                                                                    
                                                                                                    
                                                                                                    
                                                                                                    
                                                                                                    
                           
<?xpacket end="w"?></metadata>
<defs>
    <style>
      .cls-1 {
        fill: #fff;
        fill-rule: evenodd;
      }
    </style>
  </defs>
  <path id="Forma_1" data-name="Forma 1" class="cls-1" d="M12.108,8.167a3.982,3.982,0,1,0,4.01,3.982A4,4,0,0,0,12.108,8.167Zm0,5.967a2,2,0,1,1,2-2A2,2,0,0,1,12.108,14.134Zm0-13.994c-10.154,0-12,8.028-12,12.995,0,12.026,12,18.992,12,18.992s12-6.9,12-18.992C24.107,7.136,22.231.139,12.108,0.139Zm0,29.745S1.789,23.827,1.789,13.369c0-4.319,1.587-11.3,10.318-11.3,8.7,0,10.318,6.085,10.318,11.3C22.424,23.881,12.108,29.885,12.108,29.885Z" transform="translate(-0.094 -0.125)"/>
</svg>
