<svg xmlns="http://www.w3.org/2000/svg" width="26" height="36" viewBox="0 0 26 36">
  <metadata><?xpacket begin="﻿" id="W5M0MpCehiHzreSzNTczkc9d"?>
<x:xmpmeta xmlns:x="adobe:ns:meta/" x:xmptk="Adobe XMP Core 5.6-c138 79.159824, 2016/09/14-01:09:01        ">
   <rdf:RDF xmlns:rdf="http://www.w3.org/1999/02/22-rdf-syntax-ns#">
      <rdf:Description rdf:about=""/>
   </rdf:RDF>
</x:xmpmeta>
                                                                                                    
                                                                                                    
                                                                                                    
                                                                                                    
                                                                                                    
                                                                                                    
                                                                                                    
                                                                                                    
                                                                                                    
                                                                                                    
                                                                                                    
                                                                                                    
                                                                                                    
                                                                                                    
                                                                                                    
                                                                                                    
                                                                                                    
                                                                                                    
                                                                                                    
                                                                                                    
                           
<?xpacket end="w"?></metadata>
<defs>
    <style>
      .cls-1 {
        fill-rule: evenodd;
      }
    </style>
  </defs>
  <path id="Forma_1" data-name="Forma 1" class="cls-1" d="M22.733,2.657L20.482,4.141,20.277,5.325l2.251-1.483ZM22.312,5.084L20.061,6.568,19.825,7.93l2.252-1.484Zm0.822-4.736L21.2,0,20.7,2.9l2.251-1.483ZM16.723,12.708a1.237,1.237,0,0,0,0,2.474c0.031,0,.06-0.007.09-0.009,0.293,2.2-1.973,4.207-4.12,4.325-2.418.133-3.421-2.25-3.621-4.352a1.227,1.227,0,1,0-1.059-.261c0.178,2.892,1.8,6.093,5.131,5.634,2.79-.385,5.284-3.12,4.607-5.922a1.242,1.242,0,0,0,.187-0.652A1.228,1.228,0,0,0,16.723,12.708ZM25.947,34.78C25.053,31.2,22.408,18.914,25.9,11.1c0-.008,0-0.016.007-0.024a0.742,0.742,0,0,0,.043-0.14c0-.012.007-0.023,0.009-0.035a0.85,0.85,0,0,0,.01-0.18c0-.011,0-0.022,0-0.033a0.738,0.738,0,0,0-.029-0.144c0-.017-0.011-0.033-0.017-0.05a0.907,0.907,0,0,0-.057-0.121c-0.006-.01-0.008-0.021-0.015-0.032s-0.009-.009-0.012-0.015-0.01-.019-0.017-0.028L23.307,6.863A0.772,0.772,0,0,0,22.958,6.6a2.608,2.608,0,0,1-.146,2.242l0.829,1.135h-3.5l1.5-.986,0.226-1.3L19.61,9.173l-0.14.805H17.11l1.153-1.849L18.526,7.7,16.747,6.544,12.468,3.783,11.18,5.85l1.25,4.129H11.783L9.164,1.328,2.3,3.479,3.228,6.542H2.508a0.777,0.777,0,0,0-.693.431L0.084,10.408c-0.008.015-.011,0.031-0.018,0.047a0.633,0.633,0,0,0-.024.061,0.743,0.743,0,0,0-.028.115c0,0.018-.007.036-0.009,0.055a0.822,0.822,0,0,0,0,.154c0,0.007,0,.013,0,0.02a0.821,0.821,0,0,0,.04.17s0,0.009,0,.014C3.735,21.254,1.138,31.86.254,34.868a0.865,0.865,0,0,0,.093.817A0.775,0.775,0,0,0,.969,36H0.98a0.7,0.7,0,0,0,.481-0.181H24.791a0.716,0.716,0,0,0,.446.142,0.776,0.776,0,0,0,.615-0.306A0.911,0.911,0,0,0,25.947,34.78ZM2.985,8.128H3.708l0.56,1.849H2.052ZM2.047,34.234c1.029-3.963,2.815-13.349-.176-22.67H24.029c-2.785,7.647-.828,18.307.182,22.67H2.047Z"/>
</svg>
