<?xml version="1.0" encoding="utf-8"?>
<!-- Generator: Adobe Illustrator 19.1.0, SVG Export Plug-In . SVG Version: 6.00 Build 0)  -->
<svg version="1.1" id="Layer_1" xmlns="http://www.w3.org/2000/svg" xmlns:xlink="http://www.w3.org/1999/xlink" x="0px" y="0px"
	 viewBox="0 0 64 64" enable-background="new 0 0 64 64" xml:space="preserve">
<g id="Transportation-car">
	<path d="M29.1777458,25.1513996c-0.0146961-0.0438995-0.0332012-0.0879002-0.0536957-0.1289005
		c-0.0293045-0.0595989-0.0654049-0.1171989-0.1074047-0.169899l-4.4004002-5.8682003
		c-0.3320999-0.4424-0.9589996-0.5321999-1.3994007-0.2001991c-0.4424,0.3310986-0.532299,0.9580002-0.2001991,1.3993988
		l3.2129002,4.2862015h-12.71c-0.5527,0-1,0.4471989-1,1c0,0.5526981,0.4473,1,1,1h12.71l-3.2129002,4.2831993
		c-0.3320999,0.4414005-0.2422009,1.0683002,0.2001991,1.3994007c0.1796017,0.1348,0.3896008,0.2001991,0.5986004,0.2001991
		c0.3037014,0,0.6044998-0.1376991,0.8008003-0.4004002l4.4004002-5.8642998
		c0.0410004-0.0527,0.0760994-0.1093006,0.1064053-0.1679001c0.0214939-0.0429993,0.039999-0.0879002,0.0556946-0.1348
		c0.0342007-0.1035004,0.0508003-0.210001,0.0508003-0.3164005s-0.0165997-0.2129002-0.0508003-0.3153992
		C29.1777458,25.1523991,29.1777458,25.1523991,29.1777458,25.1513996z"/>
	<path d="M63.65905,41.5149002l-4.6213074-18.4850006C58.5926437,21.2492008,56.9926453,20,55.1571465,20H42.2802467v-9
		c0-1.6541996-1.3457031-3-3-3h-36c-1.6543001,0-3,1.3458004-3,3v30c0,1.6543007,1.3456999,3,3,3h6.1056004
		c-1.2979002,1.2706985-2.1056004,3.0401001-2.1056004,5c0,3.8660011,3.1341,7,7,7c3.8660002,0,6.999999-3.1339989,6.999999-7
		c0-1.9598999-0.8074989-3.7293015-2.1054993-5h21.1055012h2h4.1055984c-1.2979012,1.2706985-2.1055984,3.0401001-2.1055984,5
		c0,3.8660011,3.1340981,7,6.9999962,7c3.8660011,0,7-3.1339989,7-7c0-1.9598999-0.8074989-3.7293015-2.1054993-5h5.5440025
		C63.0198441,44,63.9746437,42.7773018,63.65905,41.5149002z M55.1571465,22c0.9194984,0,1.7172966,0.6229992,1.9403,1.5149002
		l1.7093964,6.8376999H42.2802467V22H55.1571465z M19.2802448,49c0,2.7570992-2.2428989,5-4.999999,5c-2.757,0-5-2.2429008-5-5
		c0-2.757,2.243-5,5-5C17.0373459,44,19.2802448,46.243,19.2802448,49z M40.2802467,42h-37c-0.5517001,0-1-0.4482002-1-1V11
		c0-0.5516996,0.4482999-1,1-1h36c0.5518036,0,1,0.4483004,1,1v9V42z M56.2802429,49c0,2.7570992-2.242897,5-5,5
		c-2.757,0-4.9999962-2.2429008-4.9999962-5c0-2.757,2.2429962-5,4.9999962-5C54.0373459,44,56.2802429,46.243,56.2802429,49z
		 M42.2802467,42v-9.6473999h17.0265961L61.7187462,42H42.2802467z"/>
	<path d="M40.2802467,47H24.2802448c-0.5527,0-1,0.4473-1,1c0,0.5527992,0.4473,1,1,1h16.0000019c0.552803,0,1-0.4472008,1-1
		C41.2802467,47.4473,40.8330498,47,40.2802467,47z"/>
</g>
</svg>
