<?xml version="1.0" encoding="utf-8"?>
<!-- Generator: Adobe Illustrator 19.1.0, SVG Export Plug-In . SVG Version: 6.00 Build 0)  -->
<svg version="1.1" id="Layer_1" xmlns="http://www.w3.org/2000/svg" xmlns:xlink="http://www.w3.org/1999/xlink" x="0px" y="0px"
	 viewBox="0 0 64 64" enable-background="new 0 0 64 64" xml:space="preserve">
<g id="Percent">
	<path d="M42.6426277,19.2320995c-0.4257965-0.3544998-1.0556984-0.2959003-1.4091988,0.1279011L21.2334328,43.3595009
		c-0.3535004,0.4248009-0.2959003,1.0556984,0.1278992,1.4091988c0.1875,0.1553001,0.4141006,0.2313995,0.6396999,0.2313995
		c0.2870998,0,0.5713005-0.1219978,0.7695007-0.3592987l19.9999981-24.0004997
		C43.1240311,20.2159996,43.0664291,19.5855999,42.6426277,19.2320995z"/>
	<path d="M60.5618286,26.2907009c-0.4053993-0.3727016-0.7630997-0.5880013-1.0242958-0.7452011
		c-0.1565056-0.094099-0.2613029-0.1571999-0.3776054-0.2507992c-0.3942986-0.4535999-0.4321976-0.9035015-0.1211967-1.4091015
		c0.5908966-0.9607983,0.9040985-2.2143993,0.8816986-3.5297985c-0.0060997-0.3593006-0.0391006-0.6835003-0.0985985-0.9720001
		l0.0217972-0.0029011c-0.343399-2.5995998-2.0433998-4.9289999-4.4365997-6.0790997
		c-1.3074951-0.6285-2.4426003-0.6603994-2.6567993-0.6603994h-0.0037994
		c-0.7813988-0.0359001-0.7924004-0.0460005-1.1417999-0.3663006c-0.1324005-0.1213999-0.1747017-0.2389994-0.2544022-1.0354996
		c-0.1348991-1.3471003-0.3386955-3.3827-2.844696-5.3995004c-1.4115028-1.1359-3.1867027-1.7614999-4.998703-1.7614999
		c-0.9311981,0-1.8097,0.1659002-2.6110992,0.4931002C40.4816284,4.7409,40.1854286,4.9063001,39.9692307,5.027
		c-0.0824013,0.0461001-0.1952019,0.1090999-0.2254028,0.1194c0,0-0.0740967,0.0211-0.3008995,0.0211L39.3798294,5.1664
		c-0.4989014-0.0718999-0.5964012-0.1753998-1.0834999-0.9639001C37.3318291,2.6413,35.020134,1.0453,32.0299339,0.999
		l-0.030901-0.0004L31.9680328,0.999l-0.1026001,0.0016c-2.830101,0.081-5.0683002,1.3837999-6.4990997,3.7683001
		C25.2759323,4.9196,24.9755325,5.1585002,24.5541325,5.1585002c-0.1622009,0-0.3339996-0.0351-0.5116005-0.1047001
		l-0.1597004-0.0908003c-0.4090004-0.2356997-0.6945-0.3908-1.3806992-0.6006999
		c-0.6089001-0.1863999-1.3045006-0.2807999-2.0675011-0.2809c-0.0036983,0-0.0074997,0-0.0112,0
		c-0.3077984,0-0.6605988,0.0009003-1.0112,0.0700002c-1.8227997,0.2346997-3.4921989,1.1148-4.8400993,2.5545001
		c-1.7628002,1.8829002-1.8697996,3.6545-1.9337997,4.7130995c-0.0118999,0.1975002-0.0242004,0.4015999-0.0438004,0.4975004
		c-0.0293999,0.1444998-0.3155003,0.7282-1.0873995,0.7282l-0.0507002-0.0008001l-0.1468-0.0023003
		c-1.0832005,0-2.3100004,0.3678999-3.3660002,1.0095005c-0.6735001,0.4092999-1.3069,0.8548002-1.7133002,1.3844995
		c-1.4926,1.5565996-2.2867999,3.794301-2.1313,6.0339003c0.0975003,1.4050999,0.5008001,2.1550007,0.7953,2.7026005
		c0.1498003,0.2786999,0.2211003,0.4111996,0.2675004,0.6553001c0.0105,0.4526997-0.1010003,0.6948986-0.4492002,0.9696999
		l-0.3712001,0.220499c-1.7233999,1.0237999-2.9418001,2.9888-3.2593,5.2564011
		c-0.3388,2.4202995,0.4003,4.7972984,2.0278001,6.5214996c0.3674998,0.3893013,0.7856998,0.6841011,1.1545999,0.9440994
		c0.9011998,0.6352005,1.0159001,0.7397003,0.8622999,1.4249001c-0.0565,0.1473999-0.1290998,0.2840004-0.2244997,0.4631996
		c-0.3111,0.5848007-0.7371001,1.3857994-0.8162003,2.9211998c-0.1448998,2.8132019,1.2119002,5.4538994,3.6296,7.0638008
		c1.4283004,0.9510002,2.7036996,1.0765991,3.6348996,1.1683998c0.9413004,0.092701,0.9413004,0.092701,1.2342005,0.6784019
		c0.0288,0.0576973,0.0445995,0.3691978,0.0539999,0.5552979c0.0509005,1.0088997,0.1278,2.5333023,1.7307997,4.4534988
		c1.4916,1.7868004,3.7741003,2.8535004,6.1057005,2.8535004c0.4305,0,0.8652992-0.0356979,1.2922993-0.1063004
		c0.9015999-0.1488991,1.5754013-0.4791985,2.0674-0.7203979c0.3502007-0.1716995,0.5551014-0.2687988,0.6923008-0.2687988
		c0.0648003,0,0.2068996,0.0156975,0.4608994,0.114399c0.2758007,0.1506004,0.3045006,0.1987991,0.4819012,0.4967003
		c0.2838001,0.4762001,0.7124996,1.1959,1.8153,2.0296974c1.3085995,0.989502,2.9735985,1.5343018,4.6882992,1.5343018
		c1.0979004,0,2.175602-0.2192001,3.2030983-0.6515007c1.9939003-0.8390007,2.7500992-1.9869003,3.2504005-2.7466011
		c0.3292999-0.4996986,0.3983994-0.6047974,0.7677002-0.7300987c0.1714973-0.033699,0.2797966-0.0412979,0.3428001-0.0412979
		c0.1094971,0,0.1632996,0.017498,0.5928001,0.2369995c0.1681976,0.0859985,0.3471985,0.1769981,0.5460968,0.2695007
		c0.5701027,0.2650986,1.2644997,0.4389992,1.7245026,0.5048981v0.0000992
		c0.3280983,0.0538025,0.7096977,0.0811005,1.1340981,0.0811005c0.115799,0,0.2257004-0.0051003,0.3300018-0.0149002
		l0.0003014,0.0079994c0.198597-0.006897,0.3959999-0.0217972,0.5919991-0.0443993h0.127697l0.0013046-0.016098
		c3.3486977-0.446003,6.2288971-3.1403999,6.7171974-6.4103012c0.0655975-0.4396019,0.0698013-0.783802,0.0728989-1.035099
		c0.0037003-0.3019028,0.0040016-0.3283997,0.1639023-0.5852013c0.3247986-0.4145012,0.4309998-0.4199982,1.1425972-0.4569016
		l0.3178024-0.0179977c1.810997-0.1205025,3.6060982-1.0553017,4.9249992-2.5650024
		c1.4202995-1.6257973,2.1216011-3.7029991,1.9748001-5.8491974c-0.0906029-1.3240013-0.4323006-2.0431023-0.8045998-2.7220993
		c-0.1512032-0.2756996-0.216301-0.3945999-0.2597008-0.6401024c-0.0280991-0.5732994,0.0261993-0.6128006,0.8041992-1.1805992
		c1.017601-0.7426987,2.5555992-1.8651009,3.1731987-4.6635017C63.4123306,31.0191002,62.5284271,28.0986004,60.5618286,26.2907009z
		 M60.8608284,33.3000984c-0.9175987,4.157402-4.2084999,3.0072021-4.016098,6.4842033
		c0.2113991,1.4595985,0.9365997,1.476799,1.0606003,3.2896996c0.2350998,3.434597-2.4424019,6.1094971-5.0371017,6.2819977
		c-1.0023994,0.0666008-1.9412003-0.0231972-2.9706955,1.3260002c-0.7328033,1.1665993-0.4222031,1.4672012-0.5719032,2.4694023
		c-0.3857994,2.5836983-2.8670006,4.6753998-5.5292015,4.7673988c0.0042-0.0002022,0.0069008-0.0002022,0.0082016-0.0002022
		c0.0129013,0-0.0988998,0.0059013-0.2694016,0.0059013c-0.2196007,0-0.536499-0.0098-0.8102989-0.0546989
		c0.0137978,0.0022011,0.019001,0.0033989,0.0163994,0.0033989c-0.0229988,0-0.6807976-0.0969009-1.2214012-0.3483009
		c-0.7655983-0.355999-1.1914978-0.692997-1.9821968-0.692997c-0.2443008,0-0.5235023,0.0320969-0.8583031,0.1058998
		c-2.3055954,0.7243004-1.4811974,2.3916969-4.2782974,3.5685997C33.5897331,60.8478012,32.7654305,61.0014,31.973732,61.0014
		c-1.3241997,0-2.5566998-0.4299011-3.4820995-1.1296005c-1.6629009-1.2574005-1.0270996-1.8812981-2.6519012-2.7439995
		c-0.5178986-0.2168999-0.9417-0.3014984-1.3123989-0.3014984c-1.1387997,0-1.774601,0.7994003-3.0855007,1.0158997
		c-0.3258991,0.0538979-0.6486988,0.0795975-0.9664993,0.0795975c-1.8407993,0-3.5088997-0.8636971-4.5704002-2.1352005
		c-1.8331995-2.1959991-0.9289999-3.4172974-1.5313997-4.6217995c-1.3589001-2.7166977-3.1435003-1.0149002-5.5493002-2.6167984
		c-1.9667001-1.3096008-2.8390999-3.3876991-2.7407999-5.2961006c0.0843-1.6358986,0.6279998-1.921299,0.9656997-2.9235001
		c0.6681004-2.7946014-1.5388999-3.3036003-2.4847999-4.3058014c-2.6272998-2.7832985-1.6543-7.2283974,0.7986002-8.6855984
		c0,0,0.2627997-0.1508999,0.4337997-0.2528c0.9825001-0.7134991,1.4274001-1.6128006,1.3582001-2.863699
		c-0.2174001-1.4420013-0.9376001-1.5147018-1.0606999-3.2895012c-0.1331-1.9172993,0.6533999-3.608099,1.6938-4.6264
		c-0.0032001,0.0030994-0.0049,0.0046005-0.0049,0.0046005c-0.0053,0,0.4709001-0.5064001,1.1991-0.9488001
		c0.8080997-0.4911003,1.6782999-0.7188005,2.3274002-0.7188005c0.0283995,0,0.0563993,0.0004005,0.0838995,0.0013008
		c0.0383005,0.0011997,0.0759001,0.0017996,0.1136007,0.0017996c1.7131996,0,2.8247995-1.2377005,3.0471992-2.3288002
		c0.2042007-1.0022001-0.1788998-2.4736996,1.4777994-4.2431002c1.1260014-1.2026997,2.4525013-1.8215995,3.7955017-1.9559999
		c-0.0341015,0.0034003-0.0550003,0.0049-0.0638008,0.0049c-0.0466003,0,0.2422009-0.0402999,0.6707993-0.0402999
		c0.4214001,0,0.9779015,0.039,1.4822998,0.1933002c0.6280003,0.1921,0.6994019,0.2749996,1.2401009,0.5763998
		c0.4864006,0.2150998,0.9573002,0.3074002,1.3971004,0.3074002c1.1529999,0,2.0918999-0.6351004,2.5271988-1.3606
		C28.2333317,3.878,29.9142323,3.0572,31.8963318,3.0004001l0.1027012-0.0016
		c2.3103008,0.0358,3.9765987,1.2527001,4.5958004,2.2548997c0.6191978,1.0023003,1.1292953,1.7185001,2.631897,1.9101
		C39.3027306,7.1662998,39.3745308,7.1675,39.4429283,7.1675c1.1671028,0,1.2621994-0.3576002,2.2089005-0.7442002
		c0.5605011-0.2287998,1.1953011-0.3446999,1.8549995-0.3446999c1.2751999,0,2.6431999,0.4330001,3.7448006,1.3196001
		c3.2052994,2.5796003,1.2745018,4.7674999,3.0014,6.3509998c0.8888016,0.8150005,1.4634018,0.8473997,2.4818993,0.8937006
		c-0.0125008-0.0006008-0.0067978-0.0015001,0.0151024-0.0015001c0.1371002,0,0.9079971,0.0387001,1.7905998,0.4629993
		c1.8871002,0.9068995,3.0816002,2.7319994,3.3202972,4.5388994l-0.0000992-0.0004997c0,0,0.0526009,0.3241005,0.0599022,0.7471008
		c0.0173988,1.0221004-0.2411003,1.8878002-0.5856018,2.4478989c-0.777401,1.264101-0.6753998,2.7287006,0.4352989,3.9012012
		c0.5693016,0.4984989,0.929203,0.5564995,1.4379005,1.0240993C60.6305313,29.0706005,61.3199272,31.2201004,60.8608284,33.3000984z
		"/>
	<path d="M26.0019321,29.0000992c2.7569008,0,5-2.2430992,5-5c0-2.7567997-2.2430992-5-5-5c-2.7567997,0-5,2.2432003-5,5
		C21.0019321,26.757,23.2451324,29.0000992,26.0019321,29.0000992z M26.0019321,21.0000992c1.6543007,0,3,1.3457012,3,3
		c0,1.6543007-1.3456993,3-3,3c-1.6541996,0-3-1.3456993-3-3C23.0019321,22.3458004,24.3477325,21.0000992,26.0019321,21.0000992z"
		/>
	<path d="M39.0019302,35.0000992c-2.7567978,0-5,2.2432022-5,5c0,2.7569008,2.2432022,5,5,5c2.7569008,0,5-2.2430992,5-5
		C44.0019302,37.2433014,41.758831,35.0000992,39.0019302,35.0000992z M39.0019302,43.0000992c-1.6542015,0-3-1.3456993-3-3
		s1.3457985-3,3-3c1.6543007,0,3,1.3456993,3,3S40.6562309,43.0000992,39.0019302,43.0000992z"/>
</g>
</svg>
