<svg xmlns="http://www.w3.org/2000/svg" width="30" height="22" viewBox="0 0 30 22">
  <metadata><?xpacket begin="﻿" id="W5M0MpCehiHzreSzNTczkc9d"?>
<x:xmpmeta xmlns:x="adobe:ns:meta/" x:xmptk="Adobe XMP Core 5.6-c138 79.159824, 2016/09/14-01:09:01        ">
   <rdf:RDF xmlns:rdf="http://www.w3.org/1999/02/22-rdf-syntax-ns#">
      <rdf:Description rdf:about=""/>
   </rdf:RDF>
</x:xmpmeta>
                                                                                                    
                                                                                                    
                                                                                                    
                                                                                                    
                                                                                                    
                                                                                                    
                                                                                                    
                                                                                                    
                                                                                                    
                                                                                                    
                                                                                                    
                                                                                                    
                                                                                                    
                                                                                                    
                                                                                                    
                                                                                                    
                                                                                                    
                                                                                                    
                                                                                                    
                                                                                                    
                           
<?xpacket end="w"?></metadata>
<defs>
    <style>
      .cls-1 {
        fill: #fff;
        fill-rule: evenodd;
      }
    </style>
  </defs>
  <path id="Forma_1" data-name="Forma 1" class="cls-1" d="M29.089,0.159H1.125A1.021,1.021,0,0,0,.108,1.185V21.124a1.021,1.021,0,0,0,1.017,1.026H29.089a1.021,1.021,0,0,0,1.017-1.026V1.185A1.021,1.021,0,0,0,29.089.159ZM28.072,20.1H2.143V2.21H28.072V20.1ZM4.808,7.042l9.765,6.068a1.009,1.009,0,0,0,1.067,0l9.765-6.068a1.03,1.03,0,0,0,.333-1.411,1.012,1.012,0,0,0-1.4-.335l-9.232,5.735L5.876,5.3a1.012,1.012,0,0,0-1.4.335A1.03,1.03,0,0,0,4.808,7.042Z" transform="translate(-0.094 -0.156)"/>
</svg>
