<svg xmlns="http://www.w3.org/2000/svg" width="30" height="30" viewBox="0 0 30 30">
  <metadata><?xpacket begin="﻿" id="W5M0MpCehiHzreSzNTczkc9d"?>
<x:xmpmeta xmlns:x="adobe:ns:meta/" x:xmptk="Adobe XMP Core 5.6-c138 79.159824, 2016/09/14-01:09:01        ">
   <rdf:RDF xmlns:rdf="http://www.w3.org/1999/02/22-rdf-syntax-ns#">
      <rdf:Description rdf:about=""/>
   </rdf:RDF>
</x:xmpmeta>
                                                                                                    
                                                                                                    
                                                                                                    
                                                                                                    
                                                                                                    
                                                                                                    
                                                                                                    
                                                                                                    
                                                                                                    
                                                                                                    
                                                                                                    
                                                                                                    
                                                                                                    
                                                                                                    
                                                                                                    
                                                                                                    
                                                                                                    
                                                                                                    
                                                                                                    
                                                                                                    
                           
<?xpacket end="w"?></metadata>
<defs>
    <style>
      .cls-1 {
        fill-rule: evenodd;
      }
    </style>
  </defs>
  <path id="Forma_1" data-name="Forma 1" class="cls-1" d="M29.534,0.465A1.789,1.789,0,0,0,28.217,0C24.494,0,12.8,7.214,8.271,11.746a19.812,19.812,0,0,0-2.712,3.3A0.855,0.855,0,0,0,5.969,16.3L6.711,16.6l-1.959.771a0.854,0.854,0,0,0-.516.584,6.011,6.011,0,0,0,.381,4.2l1.3-1.3A4.269,4.269,0,0,1,5.8,18.792l3.557-1.4c0.016-.006.028-0.018,0.043-0.025l0.408-.408A0.833,0.833,0,0,0,9.9,16.6a0.855,0.855,0,0,0-.543-0.8L7.6,15.107a19.921,19.921,0,0,1,1.882-2.151C13.895,8.542,25.276,1.711,28.217,1.711l0.065,0A9.439,9.439,0,0,1,27.127,5.34l-3.2,2.443a0.856,0.856,0,0,0,0,1.359L24.79,9.8a58.52,58.52,0,0,1-7.747,10.719c-3.031,3.032-5.68,4.244-7.888,3.552L7.846,25.379a5.761,5.761,0,0,0,2.54.6c2.4,0,5.047-1.43,7.868-4.251A60.651,60.651,0,0,0,26.651,10a0.856,0.856,0,0,0-.225-1.1L25.86,8.462,28.336,6.57a0.845,0.845,0,0,0,.257-0.321C30.467,2.195,30.12,1.05,29.534.465ZM14.886,15.112C11.15,17.47,2.848,24.917,0,30,4.789,27.315,12.354,19.126,14.886,15.112Z"/>
</svg>
