<svg xmlns="http://www.w3.org/2000/svg" width="23.969" height="24" viewBox="0 0 23.969 24">
  <metadata><?xpacket begin="﻿" id="W5M0MpCehiHzreSzNTczkc9d"?>
<x:xmpmeta xmlns:x="adobe:ns:meta/" x:xmptk="Adobe XMP Core 5.6-c138 79.159824, 2016/09/14-01:09:01        ">
   <rdf:RDF xmlns:rdf="http://www.w3.org/1999/02/22-rdf-syntax-ns#">
      <rdf:Description rdf:about=""/>
   </rdf:RDF>
</x:xmpmeta>
                                                                                                    
                                                                                                    
                                                                                                    
                                                                                                    
                                                                                                    
                                                                                                    
                                                                                                    
                                                                                                    
                                                                                                    
                                                                                                    
                                                                                                    
                                                                                                    
                                                                                                    
                                                                                                    
                                                                                                    
                                                                                                    
                                                                                                    
                                                                                                    
                                                                                                    
                                                                                                    
                           
<?xpacket end="w"?></metadata>
<defs>
    <style>
      .cls-1 {
        fill: #fff;
        fill-rule: evenodd;
      }
    </style>
  </defs>
  <path id="Forma_1" data-name="Forma 1" class="cls-1" d="M21.156,0.007H2.921A3.082,3.082,0,0,0,.009,3.052V21.317A2.775,2.775,0,0,0,2.921,24H21.156a2.7,2.7,0,0,0,2.828-2.686V3.052A3.01,3.01,0,0,0,21.156.007ZM20.592,3.435a0.823,0.823,0,0,1,.823.823V6.9a0.823,0.823,0,0,1-.823.823H17.957A0.823,0.823,0,0,1,17.134,6.9V4.259a0.823,0.823,0,0,1,.823-0.823h2.636ZM12.066,7.618a4.594,4.594,0,1,1-4.6,4.593A4.6,4.6,0,0,1,12.066,7.618ZM21.415,20.7a0.806,0.806,0,0,1-.761.728H3.479a0.959,0.959,0,0,1-.9-0.728V10.291h2.47a8.86,8.86,0,0,0-.259,1.921,7.277,7.277,0,0,0,14.555,0,8.906,8.906,0,0,0-.258-1.921h2.33V20.7Z"/>
</svg>
