<svg xmlns="http://www.w3.org/2000/svg" width="23" height="36" viewBox="0 0 23 36">
  <metadata><?xpacket begin="﻿" id="W5M0MpCehiHzreSzNTczkc9d"?>
<x:xmpmeta xmlns:x="adobe:ns:meta/" x:xmptk="Adobe XMP Core 5.6-c138 79.159824, 2016/09/14-01:09:01        ">
   <rdf:RDF xmlns:rdf="http://www.w3.org/1999/02/22-rdf-syntax-ns#">
      <rdf:Description rdf:about=""/>
   </rdf:RDF>
</x:xmpmeta>
                                                                                                    
                                                                                                    
                                                                                                    
                                                                                                    
                                                                                                    
                                                                                                    
                                                                                                    
                                                                                                    
                                                                                                    
                                                                                                    
                                                                                                    
                                                                                                    
                                                                                                    
                                                                                                    
                                                                                                    
                                                                                                    
                                                                                                    
                                                                                                    
                                                                                                    
                                                                                                    
                           
<?xpacket end="w"?></metadata>
<defs>
    <style>
      .cls-1 {
        fill: #fff;
        fill-rule: evenodd;
      }
    </style>
  </defs>
  <path id="Forma_1" data-name="Forma 1" class="cls-1" d="M18.983,0.158H4.232A4.177,4.177,0,0,0,.108,4.377V31.95a4.176,4.176,0,0,0,4.124,4.218H18.983a4.176,4.176,0,0,0,4.123-4.218V4.377A4.177,4.177,0,0,0,18.983.158ZM4.232,1.584H18.983a2.765,2.765,0,0,1,2.729,2.793v0.46H1.5V4.377A2.765,2.765,0,0,1,4.232,1.584ZM21.712,28.537H1.5V6.263H21.712V28.537Zm-2.729,6.206H4.232A2.765,2.765,0,0,1,1.5,31.95V29.964H21.712V31.95A2.765,2.765,0,0,1,18.983,34.743Zm-5.858-3.1h-3.08a0.713,0.713,0,0,0,0,1.426h3.08A0.713,0.713,0,0,0,13.125,31.641ZM11.564,3.885h0.087a0.713,0.713,0,0,0,0-1.425H11.564A0.713,0.713,0,0,0,11.564,3.885Z" transform="translate(-0.094 -0.156)"/>
</svg>
