<svg xmlns="http://www.w3.org/2000/svg" width="35" height="26" viewBox="0 0 35 26">
  <metadata><?xpacket begin="﻿" id="W5M0MpCehiHzreSzNTczkc9d"?>
<x:xmpmeta xmlns:x="adobe:ns:meta/" x:xmptk="Adobe XMP Core 5.6-c138 79.159824, 2016/09/14-01:09:01        ">
   <rdf:RDF xmlns:rdf="http://www.w3.org/1999/02/22-rdf-syntax-ns#">
      <rdf:Description rdf:about=""/>
   </rdf:RDF>
</x:xmpmeta>
                                                                                                    
                                                                                                    
                                                                                                    
                                                                                                    
                                                                                                    
                                                                                                    
                                                                                                    
                                                                                                    
                                                                                                    
                                                                                                    
                                                                                                    
                                                                                                    
                                                                                                    
                                                                                                    
                                                                                                    
                                                                                                    
                                                                                                    
                                                                                                    
                                                                                                    
                                                                                                    
                           
<?xpacket end="w"?></metadata>
<defs>
    <style>
      .cls-1 {
        fill-rule: evenodd;
      }
    </style>
  </defs>
  <path id="Forma_1" data-name="Forma 1" class="cls-1" d="M34.251,7.193H32.61V2.287A2.278,2.278,0,0,0,30.347,0H2.263A2.278,2.278,0,0,0,0,2.287V23.712A2.278,2.278,0,0,0,2.263,26H30.347a2.278,2.278,0,0,0,2.263-2.288V18.806h1.64A0.753,0.753,0,0,0,35,18.049V7.95A0.753,0.753,0,0,0,34.251,7.193ZM2.263,1.514H30.347a0.77,0.77,0,0,1,.765.773V3.77H1.5V2.287A0.77,0.77,0,0,1,2.263,1.514ZM30.347,24.485H2.263A0.77,0.77,0,0,1,1.5,23.712V22.23H31.112v1.482A0.77,0.77,0,0,1,30.347,24.485Zm0.765-3.77H1.5V5.284H31.112V7.193H25.739a5.807,5.807,0,0,0,0,11.613h5.374v1.909h0Zm2.39-3.424H25.739a4.292,4.292,0,0,1,0-8.584H33.5v8.584h0ZM22.68,12.93a2.867,2.867,0,1,0,2.867-2.9A2.886,2.886,0,0,0,22.68,12.93Zm4.236,0a1.369,1.369,0,1,1-1.369-1.384A1.378,1.378,0,0,1,26.917,12.93Z"/>
</svg>
