<svg xmlns="http://www.w3.org/2000/svg" width="28.281" height="28.281" viewBox="0 0 28.281 28.281">
  <metadata><?xpacket begin="﻿" id="W5M0MpCehiHzreSzNTczkc9d"?>
<x:xmpmeta xmlns:x="adobe:ns:meta/" x:xmptk="Adobe XMP Core 5.6-c138 79.159824, 2016/09/14-01:09:01        ">
   <rdf:RDF xmlns:rdf="http://www.w3.org/1999/02/22-rdf-syntax-ns#">
      <rdf:Description rdf:about=""/>
   </rdf:RDF>
</x:xmpmeta>
                                                                                                    
                                                                                                    
                                                                                                    
                                                                                                    
                                                                                                    
                                                                                                    
                                                                                                    
                                                                                                    
                                                                                                    
                                                                                                    
                                                                                                    
                                                                                                    
                                                                                                    
                                                                                                    
                                                                                                    
                                                                                                    
                                                                                                    
                                                                                                    
                                                                                                    
                                                                                                    
                           
<?xpacket end="w"?></metadata>
<defs>
    <style>
      .cls-1 {
        fill-rule: evenodd;
      }
    </style>
  </defs>
  <path id="Forma_1" data-name="Forma 1" class="cls-1" d="M17.678,27.377a0.749,0.749,0,1,1-1.059,1.061L14.5,26.323l-2.118,2.116a0.75,0.75,0,0,1-1.061-1.061L14.5,24.2ZM14.5,4.8l3.181-3.179A0.751,0.751,0,0,0,16.62.559L14.5,2.679,12.386,0.561a0.75,0.75,0,0,0-1.061,1.061ZM1.624,11.069A0.751,0.751,0,0,0,.562,12.131l2.119,2.118L0.562,16.368a0.751,0.751,0,0,0,.53,1.282,0.739,0.739,0,0,0,.53-0.221L4.8,14.249Zm24.7,3.181,2.119-2.119a0.75,0.75,0,0,0-1.06-1.062L24.2,14.249l3.182,3.18a0.75,0.75,0,0,0,1.06-1.062ZM26.606,21.5a0.75,0.75,0,0,1-.75.75H23.311l2.326,2.326a0.751,0.751,0,0,1-.531,1.281,0.736,0.736,0,0,1-.528-0.221l-2.325-2.324v2.545a0.75,0.75,0,0,1-1.5,0V21.812l-2.037-2.037a6.7,6.7,0,0,1-3.8,1.461l3.806,3.807a0.752,0.752,0,0,1-.529,1.283,0.742,0.742,0,0,1-.53-0.221L14.5,22.939,11.332,26.1a0.751,0.751,0,1,1-1.062-1.062l3.805-3.807a6.709,6.709,0,0,1-3.785-1.461L8.253,21.812v4.043a0.75,0.75,0,1,1-1.5,0V23.312L4.428,25.636a0.747,0.747,0,0,1-.53.221,0.736,0.736,0,0,1-.529-0.221,0.75,0.75,0,0,1,0-1.061l2.326-2.326H3.148a0.75,0.75,0,1,1,0-1.5H7.194L9.23,18.713A6.716,6.716,0,0,1,7.769,14.93l-3.806,3.8A0.75,0.75,0,0,1,2.9,17.672L6.07,14.506,2.9,11.339a0.751,0.751,0,1,1,1.062-1.061L7.77,14.084a6.708,6.708,0,0,1,1.463-3.8L7.2,8.249l-4.045,0a0.75,0.75,0,0,1,0-1.5H5.7L3.371,4.423A0.75,0.75,0,0,1,4.432,3.362L6.757,5.686V3.142a0.75,0.75,0,1,1,1.5,0V7.186l2.037,2.037a6.712,6.712,0,0,1,3.787-1.461l-3.8-3.8A0.751,0.751,0,0,1,11.342,2.9l3.167,3.166L17.675,2.9a0.75,0.75,0,0,1,1.061,1.062l-3.8,3.8a6.71,6.71,0,0,1,3.785,1.461l2.037-2.037V3.143a0.75,0.75,0,1,1,1.5,0V5.686l2.325-2.324a0.75,0.75,0,0,1,1.061,1.061L23.319,6.749h2.545a0.75,0.75,0,0,1,0,1.5H21.819l-2.036,2.036a6.716,6.716,0,0,1,1.463,3.786l3.8-3.8a0.751,0.751,0,0,1,1.063,1.062L22.936,14.5,26.1,17.666a0.751,0.751,0,0,1-.53,1.282,0.742,0.742,0,0,1-.53-0.221l-3.8-3.8a6.726,6.726,0,0,1-1.462,3.786l2.035,2.036,4.045,0A0.748,0.748,0,0,1,26.606,21.5Zm-8.969-2.807A5.161,5.161,0,1,0,14.5,19.756,5.227,5.227,0,0,0,17.637,18.695Z" transform="translate(-0.375 -0.375)"/>
</svg>
