<?xml version='1.0' encoding='iso-8859-1'?>
<!DOCTYPE svg PUBLIC '-//W3C//DTD SVG 1.1//EN' 'http://www.w3.org/Graphics/SVG/1.1/DTD/svg11.dtd'>
<svg version="1.1" xmlns="http://www.w3.org/2000/svg" viewBox="0 0 297.006 297.006" xmlns:xlink="http://www.w3.org/1999/xlink" enable-background="new 0 0 297.006 297.006">
  <g>
    <path d="m148.503,37.143c-3.866,0-7,3.134-7,7v4.5c0,3.866 3.134,7 7,7 3.866,0 7-3.134 7-7v-4.5c0-3.867-3.134-7-7-7z"/>
    <path d="m148.503,182.986c-3.866,0-7,3.134-7,7v8.425c0,3.866 3.134,7 7,7 3.866,0 7-3.134 7-7v-8.425c0-3.866-3.134-7-7-7z"/>
    <path d="m148.503,145.544c-3.866,0-7,3.134-7,7v8.425c0,3.866 3.134,7 7,7 3.866,0 7-3.134 7-7v-8.425c0-3.866-3.134-7-7-7z"/>
    <path d="m148.503,70.66c-3.866,0-7,3.134-7,7v8.425c0,3.866 3.134,7 7,7 3.866,0 7-3.134 7-7v-8.425c0-3.866-3.134-7-7-7z"/>
    <path d="m148.503,108.103c-3.866,0-7,3.134-7,7v8.424c0,3.866 3.134,7 7,7 3.866,0 7-3.134 7-7v-8.424c0-3.867-3.134-7-7-7z"/>
    <path d="m148.503,220.429c-3.866,0-7,3.134-7,7v4.5c0,3.866 3.134,7 7,7 3.866,0 7-3.134 7-7v-4.5c0-3.866-3.134-7-7-7z"/>
    <path d="m268.003,204.856c-22.726,0-41.214-26.146-41.214-58.285 0-32.139 18.488-58.286 41.214-58.286 3.62,0 6.957-1.956 8.726-5.115 1.768-3.159 1.691-7.026-0.201-10.112l-27.071-44.143c-1.601-2.61-4.309-4.344-7.351-4.703-3.042-0.362-6.078,0.694-8.245,2.859-9.414,9.414-24.73,9.412-34.143,0-4.56-4.559-7.071-10.623-7.072-17.072-0.001-5.522-4.478-9.999-10-9.999h-68.286c-5.522,0-9.999,4.477-10,9.999-0.001,6.449-2.513,12.513-7.072,17.072-9.412,9.414-24.73,9.412-34.143,0-2.167-2.165-5.209-3.221-8.245-2.859-3.041,0.359-5.75,2.093-7.351,4.703l-27.07,44.143c-1.893,3.086-1.97,6.953-0.201,10.112 1.769,3.159 5.106,5.115 8.726,5.115 22.726,0 41.214,26.147 41.214,58.286 0,32.139-18.488,58.285-41.214,58.285-3.41,0-6.585,1.738-8.423,4.61-1.839,2.872-2.086,6.483-0.657,9.58l17.071,36.992c1.861,4.032 6.158,6.359 10.549,5.701 0.709-0.104 71.307-10.089 91.422,29.771 1.685,3.339 5.092,5.459 8.831,5.495 0.032,0 0.064,0 0.097,0 3.702,0 7.105-2.047 8.839-5.323 21.623-40.866 92.279-32.842 92.99-32.756 4.199,0.513 8.263-1.672 10.154-5.455l17.071-34.144c1.55-3.1 1.384-6.781-0.438-9.729-1.822-2.947-5.041-4.742-8.507-4.742zm-22.988,33.619c-18.797-1.097-69.54-0.796-97.039,30.834-21.16-24.353-57.333-28.774-80.819-28.774-5.979,0-11.134,0.287-15.011,0.604l-8.528-18.48c11.223-3.454 21.427-10.904 29.6-21.802 10.963-14.617 17-33.895 17-54.285 0-20.39-6.037-39.668-17-54.285-7.788-10.384-17.417-17.638-28.017-21.287l13.7-22.34c16.773,9.24 38.326,6.756 52.529-7.446 5.927-5.927 9.961-13.243 11.798-21.214h50.549c1.837,7.971 5.871,15.287 11.798,21.214 14.204,14.203 35.756,16.686 52.529,7.446l13.7,22.34c-10.6,3.649-20.229,10.903-28.016,21.286-10.963,14.617-17,33.896-17,54.285 0,20.39 6.037,39.668 17,54.285 8.075,10.767 18.131,18.168 29.195,21.676l-7.968,15.943z"/>
  </g>
</svg>
