<?xml version="1.0" encoding="UTF-8" standalone="no"?>
<svg
   xmlns:x="adobe:ns:meta/"
   xmlns:dc="http://purl.org/dc/elements/1.1/"
   xmlns:cc="http://creativecommons.org/ns#"
   xmlns:rdf="http://www.w3.org/1999/02/22-rdf-syntax-ns#"
   xmlns:svg="http://www.w3.org/2000/svg"
   xmlns="http://www.w3.org/2000/svg"
   xmlns:sodipodi="http://sodipodi.sourceforge.net/DTD/sodipodi-0.dtd"
   xmlns:inkscape="http://www.inkscape.org/namespaces/inkscape"
   width="30"
   height="26"
   viewBox="0 0 30 26"
   version="1.1"
   id="svg9"
   sodipodi:docname="ic-twitter.svg"
   inkscape:version="0.92.1 r15371">
  <sodipodi:namedview
     pagecolor="#ffffff"
     bordercolor="#666666"
     borderopacity="1"
     objecttolerance="10"
     gridtolerance="10"
     guidetolerance="10"
     inkscape:pageopacity="0"
     inkscape:pageshadow="2"
     inkscape:window-width="1366"
     inkscape:window-height="716"
     id="namedview11"
     showgrid="false"
     inkscape:zoom="9.0769231"
     inkscape:cx="15"
     inkscape:cy="13"
     inkscape:window-x="-7"
     inkscape:window-y="-7"
     inkscape:window-maximized="1"
     inkscape:current-layer="svg9" />
  <metadata
     id="metadata2">
<?xpacket begin="ÿ" id="W5M0MpCehiHzreSzNTczkc9d"?>    <x:xmpmeta
       x:xmptk="Adobe XMP Core 5.6-c138 79.159824, 2016/09/14-01:09:01        ">
      <metadata>
        <rdf:RDF>
          <rdf:Description
             rdf:about="" />
          <cc:Work
             rdf:about="">
            <dc:format>image/svg+xml</dc:format>
            <dc:type
               rdf:resource="http://purl.org/dc/dcmitype/StillImage" />
          </cc:Work>
        </rdf:RDF>
      </metadata>
    </x:xmpmeta>
<?xpacket end="w"?>  </metadata>
  <defs
     id="defs6">
    <style
       id="style4">
      .cls-1 {
        fill: #fff;
        fill-rule: evenodd;
      }
    </style>
  </defs>
  <path
     id="Forma_1"
     data-name="Forma 1"
     class="cls-1"
     d="m 23.7975,8.9414997 c 0,-0.206 0,-0.41 -0.013,-0.613 0.89293,-0.6649049 1.659393,-1.4845428 2.263,-2.42 -0.82487,0.369134 -1.70193,0.6083014 -2.6,0.709 0.956071,-0.5936912 1.663419,-1.5150201 1.99,-2.592 -0.886503,0.5344506 -1.861021,0.9069208 -2.878,1.1 -0.835338,-0.959691 -2.036963,-1.5221927 -3.309,-1.549 -2.562177,0.017426 -4.608677,2.1388525 -4.534,4.7 -7.89e-4,0.3665629 0.03878,0.7320984 0.118,1.09 -3.714432,-0.2689917 -7.1268739,-2.1444651 -9.3449999,-5.136 -0.4054994,0.7397574 -0.6164292,1.5704011 -0.613,2.414 -0.012517,1.5893054 0.7370457,3.0884297 2.016,4.0319993 -0.7259655,-0.03441 -1.4319077,-0.249219 -2.054,-0.624999 v 0.06 c -0.0441,2.237225 1.4653775,4.207389 3.637,4.746999 -0.3883612,0.110074 -0.7903494,0.164615 -1.194,0.162 -0.2863939,-0.0015 -0.5718796,-0.03237 -0.852,-0.092 0.5361655,1.917339 2.2449138,3.27215 4.2339999,3.357 -1.8660627,1.560746 -4.2973258,2.274801 -6.7109999,1.971 2.0441292,1.408727 4.4674668,2.164321 6.9499999,2.167 8.337,0.003 12.895,-7.217 12.895,-13.4819993 z"
     style="fill:#ffffff;fill-rule:evenodd"
     inkscape:connector-curvature="0"
     sodipodi:nodetypes="scccccccccccccccccccs" />
</svg>
