<?xml version="1.0" encoding="utf-8"?>
<!-- Generator: Adobe Illustrator 19.1.0, SVG Export Plug-In . SVG Version: 6.00 Build 0)  -->
<svg version="1.1" id="Layer_1" xmlns="http://www.w3.org/2000/svg" xmlns:xlink="http://www.w3.org/1999/xlink" x="0px" y="0px"
	 viewBox="0 0 64 64" enable-background="new 0 0 64 64" xml:space="preserve">
<g id="Clock">
	<path d="M41.3172951,22.9356003L33,30.6991997V19c0-0.5527-0.4473076-1-1-1c-0.5523052,0-1,0.4473-1,1v14
		c0,0.3984985,0.2362938,0.7588005,0.6014938,0.9169998C31.7294941,33.9726982,31.8651943,34,32,34
		c0.2480011,0,0.4930954-0.092701,0.6825943-0.2685013l10-9.3329983c0.4033012-0.3770008,0.4248009-1.0098,0.0488014-1.4141006
		C42.3544922,22.5811005,41.7225952,22.5585995,41.3172951,22.9356003z"/>
	<path d="M32,13.0771999c0.5526924,0,1-0.4473,1-1v-2c0-0.5528002-0.4473076-1-1-1c-0.5523052,0-1,0.4471998-1,1v2
		C31,12.6299,31.4476948,13.0771999,32,13.0771999z"/>
	<path d="M16.9466953,15.3760004c-0.4174004-0.3633003-1.0488005-0.3203001-1.4111004,0.0976992
		c-0.3622999,0.4160004-0.3188,1.0478001,0.0977001,1.4101009l2,1.7411995
		c0.1893997,0.1651001,0.4232998,0.2460995,0.6562004,0.2460995c0.2792988,0,0.5570984-0.1161995,0.7549-0.3437004
		c0.362299-0.4159985,0.3188-1.0478992-0.0977001-1.4101982L16.9466953,15.3760004z"/>
	<path d="M12.0775948,31h-2c-0.5522003,0-1,0.4473-1,1c0,0.5527992,0.4477997,1,1,1h2c0.5522003,0,1-0.4472008,1-1
		C13.0775948,31.4473,12.6297951,31,12.0775948,31z"/>
	<path d="M17.4525948,45.0126991l-1.7402,1.7411995c-0.3901997,0.3907013-0.3901997,1.0235023,0.0004997,1.4141006
		c0.1953001,0.1953011,0.4511051,0.2929993,0.7070007,0.2929993c0.2558002,0,0.5121994-0.0976982,0.7074986-0.2929993
		l1.7402-1.7411995c0.3902016-0.3905983,0.3902016-1.0234985-0.0003986-1.4141006
		C18.4764938,44.6221008,17.843195,44.6221008,17.4525948,45.0126991z"/>
	<path d="M32,50.7187996c-0.5523052,0-1,0.4472008-1,1v2c0,0.5527,0.4476948,1,1,1c0.5526924,0,1-0.4473,1-1v-2
		C33,51.1660004,32.5526924,50.7187996,32,50.7187996z"/>
	<path d="M46.7176933,45.0126991c-0.3905983-0.3905983-1.0233994-0.3905983-1.4139977,0
		c-0.3906975,0.3897018-0.3906975,1.0235023,0,1.4141006l1.4501991,1.4511986
		c0.1952972,0.1953011,0.451107,0.2929001,0.7070007,0.2929001c0.2558975,0,0.5116997-0.097599,0.7069969-0.2929001
		c0.3907013-0.389698,0.3907013-1.0234985,0-1.4140968L46.7176933,45.0126991z"/>
	<path d="M53.7186928,31h-2c-0.5526924,0-1,0.4473-1,1c0,0.5527992,0.4473076,1,1,1h2c0.5527,0,1-0.4472008,1-1
		C54.7186928,31.4473,54.2713928,31,53.7186928,31z"/>
	<path d="M46.7538948,15.7129002l-1.4501991,1.4512005c-0.3906975,0.3906002-0.3906975,1.0243988,0,1.4140987
		c0.1953049,0.1953011,0.4510994,0.2929001,0.7069969,0.2929001c0.2559013,0,0.5116997-0.097599,0.7070007-0.2929001
		l1.4501991-1.4511986c0.3907013-0.3906002,0.3907013-1.0244007,0-1.4141006
		C47.7772942,15.3223,47.1444931,15.3223,46.7538948,15.7129002z"/>
	<path d="M32,0C14.3268948,0,0,14.3268995,0,32s14.3268948,32,32,32s32-14.3269005,32-32S49.6730957,0,32,0z M32,62
		C15.4578943,62,2,48.542099,2,32C2,15.4580002,15.4578943,2,32,2c16.5419998,0,30,13.4580002,30,30
		C62,48.542099,48.5419998,62,32,62z"/>
	<path d="M32,5C17.088295,5,5,17.0883007,5,32s12.088295,27,27,27c14.9115944,0,27-12.0882988,27-27S46.9115944,5,32,5z M32,57
		C18.2148952,57,7,45.785099,7,32C7,18.2150002,18.2148952,7,32,7c13.7849998,0,25,11.2150002,25,25
		C57,45.785099,45.7849998,57,32,57z"/>
</g>
</svg>
