<svg xmlns="http://www.w3.org/2000/svg" width="25" height="14" viewBox="0 0 25 14">
  <metadata><?xpacket begin="﻿" id="W5M0MpCehiHzreSzNTczkc9d"?>
<x:xmpmeta xmlns:x="adobe:ns:meta/" x:xmptk="Adobe XMP Core 5.6-c138 79.159824, 2016/09/14-01:09:01        ">
   <rdf:RDF xmlns:rdf="http://www.w3.org/1999/02/22-rdf-syntax-ns#">
      <rdf:Description rdf:about=""/>
   </rdf:RDF>
</x:xmpmeta>
                                                                                                    
                                                                                                    
                                                                                                    
                                                                                                    
                                                                                                    
                                                                                                    
                                                                                                    
                                                                                                    
                                                                                                    
                                                                                                    
                                                                                                    
                                                                                                    
                                                                                                    
                                                                                                    
                                                                                                    
                                                                                                    
                                                                                                    
                                                                                                    
                                                                                                    
                                                                                                    
                           
<?xpacket end="w"?></metadata>
<defs>
    <style>
      .cls-1 {
        fill: #fff;
        fill-rule: evenodd;
      }
    </style>
  </defs>
  <path id="Forma_1" data-name="Forma 1" class="cls-1" d="M24.015,13.917a3.528,3.528,0,0,1-.4.037c-1.314,0-2.628,0-3.94,0a0.742,0.742,0,0,1-.473-0.17c-0.274-.215-0.557-0.427-0.81-0.667-0.657-.628-1.3-1.272-1.95-1.9-0.2-.2-0.42-0.379-0.634-0.566a0.542,0.542,0,0,0-.392-0.12,0.447,0.447,0,0,0-.427.259,1.665,1.665,0,0,0-.145.488c-0.033.3-.035,0.6-0.041,0.9a3.717,3.717,0,0,1-.115,1,1.95,1.95,0,0,1-.184.421,0.709,0.709,0,0,1-.621.351c-1.146.025-2.294,0.042-3.439-.031a1.661,1.661,0,0,1-.6-0.169,9.725,9.725,0,0,1-2.823-2.012c-0.993-1.017-1.894-2.107-2.8-3.2a33.66,33.66,0,0,1-3.2-4.682A13.3,13.3,0,0,1,.1,2.015a1.466,1.466,0,0,1-.03-0.956A0.988,0.988,0,0,1,.2.788,0.406,0.406,0,0,1,.552.6l0.165,0c1.191,0,2.381,0,3.572,0a0.772,0.772,0,0,1,.574.228,4.568,4.568,0,0,1,.727.954C5.812,2.143,6.035,2.518,6.232,2.9A18.154,18.154,0,0,0,7.759,5.322C8.033,5.7,8.33,6.061,8.614,6.43a0.645,0.645,0,0,0,.527.242,0.243,0.243,0,0,0,.3-0.271c0-.048,0-0.1,0-0.142q0-1.941,0-3.879a2.845,2.845,0,0,0-.011-0.3,0.429,0.429,0,0,0-.388-0.41C8.932,1.649,8.822,1.64,8.713,1.626a0.492,0.492,0,0,1-.509-0.5A0.943,0.943,0,0,1,8.872.083,1.825,1.825,0,0,1,9.506-.006H12.69c0.215,0,.431-0.011.644,0.007A3.75,3.75,0,0,1,14,.112a0.994,0.994,0,0,1,.786.9,2.839,2.839,0,0,1,.016.336q0,1.177,0,2.354,0,1.249,0,2.5a0.86,0.86,0,0,0,.031.244,0.379,0.379,0,0,0,.6.177,4.489,4.489,0,0,0,1.528-1.848c0.33-.671.615-1.363,0.925-2.043q0.372-.809.762-1.61A2.637,2.637,0,0,1,18.9.745,0.373,0.373,0,0,1,19.226.589q2.313,0.008,4.621,0a1.143,1.143,0,0,1,.911.423,0.681,0.681,0,0,1,.139.34,2.339,2.339,0,0,1-.406,1.583,8.772,8.772,0,0,1-.958,1.3,28.621,28.621,0,0,0-2.091,2.606c-0.163.235-.3,0.486-0.451,0.73a0.4,0.4,0,0,0,.043.508c0.278,0.322.547,0.653,0.84,0.96,0.7,0.734,1.408,1.449,2.107,2.179,0.224,0.234.427,0.487,0.634,0.735,0.069,0.082.12,0.178,0.187,0.261A1.142,1.142,0,0,1,24.015,13.917Z"/>
</svg>
